<svg width="107" height="56" viewBox="0 0 107 56" fill="none" xmlns="http://www.w3.org/2000/svg">
<g filter="url(#filter0_d_780_1401)">
<rect x="4" width="99" height="48" rx="24" fill="#7B458F" shape-rendering="crispEdges"/>
<rect x="4.5" y="0.5" width="98" height="47" rx="23.5" stroke="#7B458F" shape-rendering="crispEdges"/>
<path d="M31.6914 14V29H29.1035V14H31.6914ZM31.2812 23.3359H30.5195C30.5195 22.6003 30.6172 21.9232 30.8125 21.3047C31.0078 20.6862 31.2845 20.1491 31.6426 19.6934C32.0007 19.2311 32.4271 18.873 32.9219 18.6191C33.4232 18.3652 33.9766 18.2383 34.582 18.2383C35.1029 18.2383 35.5749 18.3132 35.998 18.4629C36.4277 18.6061 36.7956 18.8372 37.1016 19.1562C37.4076 19.4753 37.6419 19.8919 37.8047 20.4062C37.974 20.9141 38.0586 21.5326 38.0586 22.2617V29H35.4609V22.2422C35.4609 21.7539 35.3893 21.3698 35.2461 21.0898C35.1029 20.8034 34.8978 20.5983 34.6309 20.4746C34.3704 20.3509 34.0482 20.2891 33.6641 20.2891C33.2474 20.2891 32.8893 20.3704 32.5898 20.5332C32.2904 20.6895 32.043 20.9076 31.8477 21.1875C31.6589 21.4674 31.5156 21.7897 31.418 22.1543C31.3268 22.5189 31.2812 22.9128 31.2812 23.3359ZM39.875 23.8242V23.6191C39.875 22.8444 39.9857 22.1315 40.207 21.4805C40.4284 20.8229 40.7507 20.2533 41.1738 19.7715C41.597 19.2897 42.1146 18.9154 42.7266 18.6484C43.3385 18.375 44.0352 18.2383 44.8164 18.2383C45.6107 18.2383 46.3138 18.375 46.9258 18.6484C47.5443 18.9154 48.0651 19.2897 48.4883 19.7715C48.9115 20.2533 49.2337 20.8229 49.4551 21.4805C49.6764 22.1315 49.7871 22.8444 49.7871 23.6191V23.8242C49.7871 24.5924 49.6764 25.3053 49.4551 25.9629C49.2337 26.6139 48.9115 27.1836 48.4883 27.6719C48.0651 28.1536 47.5475 28.528 46.9355 28.7949C46.3236 29.0618 45.6237 29.1953 44.8359 29.1953C44.0547 29.1953 43.3548 29.0618 42.7363 28.7949C42.1178 28.528 41.597 28.1536 41.1738 27.6719C40.7507 27.1836 40.4284 26.6139 40.207 25.9629C39.9857 25.3053 39.875 24.5924 39.875 23.8242ZM42.4531 23.6191V23.8242C42.4531 24.2865 42.4987 24.7194 42.5898 25.123C42.681 25.5267 42.821 25.8815 43.0098 26.1875C43.1986 26.4935 43.4427 26.7344 43.7422 26.9102C44.0482 27.0794 44.4128 27.1641 44.8359 27.1641C45.2526 27.1641 45.6107 27.0794 45.9102 26.9102C46.2096 26.7344 46.4538 26.4935 46.6426 26.1875C46.8379 25.8815 46.9811 25.5267 47.0723 25.123C47.1634 24.7194 47.209 24.2865 47.209 23.8242V23.6191C47.209 23.1634 47.1634 22.737 47.0723 22.3398C46.9811 21.9362 46.8379 21.5814 46.6426 21.2754C46.4538 20.9629 46.2064 20.7188 45.9004 20.543C45.6009 20.3607 45.2396 20.2695 44.8164 20.2695C44.3997 20.2695 44.0417 20.3607 43.7422 20.543C43.4427 20.7188 43.1986 20.9629 43.0098 21.2754C42.821 21.5814 42.681 21.9362 42.5898 22.3398C42.4987 22.737 42.4531 23.1634 42.4531 23.6191ZM54.2305 20.6016V29H51.6523V18.4336H54.084L54.2305 20.6016ZM53.8496 23.3359H53.0586C53.0586 22.6003 53.1465 21.9232 53.3223 21.3047C53.5046 20.6862 53.7715 20.1491 54.123 19.6934C54.4746 19.2311 54.9076 18.873 55.4219 18.6191C55.9427 18.3652 56.5449 18.2383 57.2285 18.2383C57.7038 18.2383 58.14 18.3099 58.5371 18.4531C58.9342 18.5898 59.276 18.8079 59.5625 19.1074C59.8555 19.4004 60.0801 19.7845 60.2363 20.2598C60.3926 20.7285 60.4707 21.2917 60.4707 21.9492V29H57.8926V22.2129C57.8926 21.7181 57.821 21.3307 57.6777 21.0508C57.541 20.7708 57.3424 20.5755 57.082 20.4648C56.8216 20.3477 56.5091 20.2891 56.1445 20.2891C55.7409 20.2891 55.3926 20.3704 55.0996 20.5332C54.8132 20.6895 54.5755 20.9076 54.3867 21.1875C54.2044 21.4674 54.0677 21.7897 53.9766 22.1543C53.8919 22.5189 53.8496 22.9128 53.8496 23.3359ZM60.2754 22.8574L59.2109 23.0527C59.2174 22.3887 59.3086 21.7669 59.4844 21.1875C59.6602 20.6016 59.9173 20.0905 60.2559 19.6543C60.6009 19.2116 61.0273 18.8665 61.5352 18.6191C62.0495 18.3652 62.6419 18.2383 63.3125 18.2383C63.8333 18.2383 64.3021 18.3132 64.7188 18.4629C65.1419 18.6061 65.5033 18.8372 65.8027 19.1562C66.1022 19.4688 66.3301 19.8757 66.4863 20.377C66.6491 20.8783 66.7305 21.4902 66.7305 22.2129V29H64.1328V22.2031C64.1328 21.6888 64.0612 21.2949 63.918 21.0215C63.7812 20.748 63.5827 20.5592 63.3223 20.4551C63.0618 20.3444 62.7559 20.2891 62.4043 20.2891C62.0462 20.2891 61.7337 20.3574 61.4668 20.4941C61.2064 20.6243 60.985 20.8066 60.8027 21.041C60.627 21.2754 60.4935 21.5488 60.4023 21.8613C60.3177 22.1673 60.2754 22.4993 60.2754 22.8574ZM73.791 29.1953C72.9902 29.1953 72.2708 29.0651 71.6328 28.8047C70.9948 28.5443 70.4512 28.1829 70.002 27.7207C69.5592 27.252 69.2174 26.7083 68.9766 26.0898C68.7422 25.4648 68.625 24.7943 68.625 24.0781V23.6875C68.625 22.8737 68.7422 22.1348 68.9766 21.4707C69.2109 20.8001 69.543 20.224 69.9727 19.7422C70.4023 19.2604 70.9167 18.8893 71.5156 18.6289C72.1146 18.3685 72.7754 18.2383 73.498 18.2383C74.2467 18.2383 74.9076 18.3652 75.4805 18.6191C76.0534 18.8665 76.5319 19.2181 76.916 19.6738C77.3001 20.1296 77.5898 20.6764 77.7852 21.3145C77.9805 21.946 78.0781 22.6458 78.0781 23.4141V24.498H69.7969V22.7207H75.5391V22.5254C75.526 22.1152 75.4479 21.7409 75.3047 21.4023C75.1615 21.0573 74.9401 20.7839 74.6406 20.582C74.3411 20.3737 73.9538 20.2695 73.4785 20.2695C73.0944 20.2695 72.7591 20.3542 72.4727 20.5234C72.1927 20.6862 71.9583 20.9206 71.7695 21.2266C71.5872 21.526 71.4505 21.8841 71.3594 22.3008C71.2682 22.7174 71.2227 23.1797 71.2227 23.6875V24.0781C71.2227 24.5208 71.2812 24.931 71.3984 25.3086C71.5221 25.6862 71.7012 26.015 71.9355 26.2949C72.1764 26.5684 72.4629 26.7832 72.7949 26.9395C73.1335 27.0892 73.5176 27.1641 73.9473 27.1641C74.4876 27.1641 74.9759 27.0599 75.4121 26.8516C75.8548 26.6367 76.2389 26.321 76.5645 25.9043L77.8633 27.252C77.6419 27.5775 77.3424 27.89 76.9648 28.1895C76.5938 28.4889 76.1445 28.7331 75.6172 28.9219C75.0898 29.1042 74.4811 29.1953 73.791 29.1953Z" fill="white"/>
</g>
<defs>
<filter id="filter0_d_780_1401" x="0" y="0" width="107" height="56" filterUnits="userSpaceOnUse" color-interpolation-filters="sRGB">
<feFlood flood-opacity="0" result="BackgroundImageFix"/>
<feColorMatrix in="SourceAlpha" type="matrix" values="0 0 0 0 0 0 0 0 0 0 0 0 0 0 0 0 0 0 127 0" result="hardAlpha"/>
<feOffset dy="4"/>
<feGaussianBlur stdDeviation="2"/>
<feComposite in2="hardAlpha" operator="out"/>
<feColorMatrix type="matrix" values="0 0 0 0 0 0 0 0 0 0 0 0 0 0 0 0 0 0 0.25 0"/>
<feBlend mode="normal" in2="BackgroundImageFix" result="effect1_dropShadow_780_1401"/>
<feBlend mode="normal" in="SourceGraphic" in2="effect1_dropShadow_780_1401" result="shape"/>
</filter>
</defs>
</svg>
