<svg width="28" height="28" viewBox="0 0 28 28" fill="none" xmlns="http://www.w3.org/2000/svg">
<g filter="url(#filter0_d_89_284)">
<path fill-rule="evenodd" clip-rule="evenodd" d="M24 6C24 4.9 23.1 4 22 4H6C4.9 4 4 4.9 4 6V18C4 19.1 4.9 20 6 20H22C23.1 20 24 19.1 24 18V6ZM22 6L14 11L6 6H22ZM22 18H6V8L14 13L22 8V18Z" fill="white"/>
<path fill-rule="evenodd" clip-rule="evenodd" d="M24 6C24 4.9 23.1 4 22 4H6C4.9 4 4 4.9 4 6V18C4 19.1 4.9 20 6 20H22C23.1 20 24 19.1 24 18V6ZM22 6L14 11L6 6H22ZM22 18H6V8L14 13L22 8V18Z" fill="black"/>
</g>
<defs>
<filter id="filter0_d_89_284" x="0" y="4" width="28" height="24" filterUnits="userSpaceOnUse" color-interpolation-filters="sRGB">
<feFlood flood-opacity="0" result="BackgroundImageFix"/>
<feColorMatrix in="SourceAlpha" type="matrix" values="0 0 0 0 0 0 0 0 0 0 0 0 0 0 0 0 0 0 127 0" result="hardAlpha"/>
<feOffset dy="4"/>
<feGaussianBlur stdDeviation="2"/>
<feComposite in2="hardAlpha" operator="out"/>
<feColorMatrix type="matrix" values="0 0 0 0 0 0 0 0 0 0 0 0 0 0 0 0 0 0 0.25 0"/>
<feBlend mode="normal" in2="BackgroundImageFix" result="effect1_dropShadow_89_284"/>
<feBlend mode="normal" in="SourceGraphic" in2="effect1_dropShadow_89_284" result="shape"/>
</filter>
</defs>
</svg>
