<svg width="32" height="38" viewBox="0 0 32 38" fill="none" xmlns="http://www.w3.org/2000/svg">
<g filter="url(#filter0_d_89_271)">
<path fill-rule="evenodd" clip-rule="evenodd" d="M15.9998 3.98169C21.4214 3.98169 25.8063 8.36657 25.8063 13.7881C25.8063 21.143 15.9998 32.0001 15.9998 32.0001C15.9998 32.0001 6.19336 21.143 6.19336 13.7881C6.19336 8.36657 10.5782 3.98169 15.9998 3.98169ZM8.99609 13.7877C8.99609 17.7803 13.0868 23.8884 16.0007 27.6288C18.9707 23.8603 23.0053 17.8224 23.0053 13.7877C23.0053 9.92116 19.8672 6.7831 16.0007 6.7831C12.1342 6.7831 8.99609 9.92116 8.99609 13.7877ZM16.0004 17.29C14.0661 17.29 12.498 15.7219 12.498 13.7877C12.498 11.8534 14.0661 10.2854 16.0004 10.2854C17.9346 10.2854 19.5027 11.8534 19.5027 13.7877C19.5027 15.7219 17.9346 17.29 16.0004 17.29Z" fill="black"/>
</g>
<defs>
<filter id="filter0_d_89_271" x="2.19336" y="3.98169" width="27.6133" height="36.0183" filterUnits="userSpaceOnUse" color-interpolation-filters="sRGB">
<feFlood flood-opacity="0" result="BackgroundImageFix"/>
<feColorMatrix in="SourceAlpha" type="matrix" values="0 0 0 0 0 0 0 0 0 0 0 0 0 0 0 0 0 0 127 0" result="hardAlpha"/>
<feOffset dy="4"/>
<feGaussianBlur stdDeviation="2"/>
<feComposite in2="hardAlpha" operator="out"/>
<feColorMatrix type="matrix" values="0 0 0 0 0 0 0 0 0 0 0 0 0 0 0 0 0 0 0.25 0"/>
<feBlend mode="normal" in2="BackgroundImageFix" result="effect1_dropShadow_89_271"/>
<feBlend mode="normal" in="SourceGraphic" in2="effect1_dropShadow_89_271" result="shape"/>
</filter>
</defs>
</svg>
