<svg width="32" height="32" viewBox="0 0 32 32" fill="none" xmlns="http://www.w3.org/2000/svg">
<g clip-path="url(#clip0_89_265)">
<g filter="url(#filter0_d_89_265)">
<path d="M25.6366 4.24487H6.36343C2.85453 4.24487 0 7.10855 0 10.6279V21.3714C0 24.8914 2.85453 27.7544 6.36343 27.7544H25.6366C29.1455 27.7544 32 24.8908 32 21.3714V10.6279C32 7.10855 29.1455 4.24487 25.6366 4.24487ZM30.6939 21.3721C30.6939 24.1717 28.4251 26.449 25.6366 26.449H6.36343C3.57486 26.449 1.30612 24.1711 1.30612 21.3721V10.6279C1.30612 7.82887 3.57486 5.551 6.36343 5.551H25.6366C28.4251 5.551 30.6939 7.82887 30.6939 10.6279V21.3721Z" fill="black"/>
<path d="M21.7869 15.7637L12.7387 10.4641C12.5376 10.3465 12.2875 10.3446 12.0843 10.4608C11.8812 10.5771 11.7559 10.7932 11.7559 11.0277V21.6262C11.7559 21.86 11.8812 22.0768 12.0837 22.1931C12.1843 22.2505 12.2966 22.2793 12.4089 22.2793C12.5232 22.2793 12.6368 22.2492 12.7387 22.1898L21.7869 16.8915C21.9867 16.7746 22.1101 16.5597 22.1101 16.3279C22.1101 16.0961 21.9874 15.8806 21.7869 15.7637ZM13.062 20.4866V12.1666L20.1647 16.3273L13.062 20.4866Z" fill="black"/>
</g>
</g>
<defs>
<filter id="filter0_d_89_265" x="-4" y="4.24487" width="40" height="31.5095" filterUnits="userSpaceOnUse" color-interpolation-filters="sRGB">
<feFlood flood-opacity="0" result="BackgroundImageFix"/>
<feColorMatrix in="SourceAlpha" type="matrix" values="0 0 0 0 0 0 0 0 0 0 0 0 0 0 0 0 0 0 127 0" result="hardAlpha"/>
<feOffset dy="4"/>
<feGaussianBlur stdDeviation="2"/>
<feComposite in2="hardAlpha" operator="out"/>
<feColorMatrix type="matrix" values="0 0 0 0 0 0 0 0 0 0 0 0 0 0 0 0 0 0 0.25 0"/>
<feBlend mode="normal" in2="BackgroundImageFix" result="effect1_dropShadow_89_265"/>
<feBlend mode="normal" in="SourceGraphic" in2="effect1_dropShadow_89_265" result="shape"/>
</filter>
<clipPath id="clip0_89_265">
<rect width="32" height="32" fill="white"/>
</clipPath>
</defs>
</svg>
