<svg width="108" height="56" viewBox="0 0 108 56" fill="none" xmlns="http://www.w3.org/2000/svg">
<g filter="url(#filter0_d_780_1403)">
<rect x="4" width="100" height="48" rx="24" fill="#7B458F" shape-rendering="crispEdges"/>
<rect x="4.5" y="0.5" width="99" height="47" rx="23.5" stroke="#7B458F" shape-rendering="crispEdges"/>
<path d="M34.9824 26.7539V21.8809C34.9824 21.5228 34.9206 21.2135 34.7969 20.9531C34.6732 20.6927 34.4844 20.4909 34.2305 20.3477C33.9766 20.2044 33.6543 20.1328 33.2637 20.1328C32.9186 20.1328 32.6159 20.1914 32.3555 20.3086C32.1016 20.4258 31.9062 20.5918 31.7695 20.8066C31.6328 21.015 31.5645 21.2559 31.5645 21.5293H28.9766C28.9766 21.0931 29.0807 20.6797 29.2891 20.2891C29.4974 19.8919 29.7936 19.5404 30.1777 19.2344C30.5684 18.9219 31.0339 18.6777 31.5742 18.502C32.1211 18.3262 32.7331 18.2383 33.4102 18.2383C34.2109 18.2383 34.9238 18.375 35.5488 18.6484C36.1803 18.9154 36.6751 19.319 37.0332 19.8594C37.3978 20.3997 37.5801 21.0801 37.5801 21.9004V26.5098C37.5801 27.0371 37.6126 27.4896 37.6777 27.8672C37.7493 28.2383 37.8535 28.5605 37.9902 28.834V29H35.3633C35.2396 28.7331 35.1452 28.3945 35.0801 27.9844C35.015 27.5677 34.9824 27.1576 34.9824 26.7539ZM35.3438 22.5645L35.3633 24.0977H33.7324C33.3288 24.0977 32.974 24.14 32.668 24.2246C32.362 24.3027 32.1113 24.4199 31.916 24.5762C31.7207 24.7259 31.5742 24.9082 31.4766 25.123C31.3789 25.3314 31.3301 25.569 31.3301 25.8359C31.3301 26.0964 31.3887 26.3307 31.5059 26.5391C31.6296 26.7474 31.8053 26.9134 32.0332 27.0371C32.2676 27.1543 32.541 27.2129 32.8535 27.2129C33.3092 27.2129 33.7064 27.1217 34.0449 26.9395C34.3835 26.7507 34.6471 26.5228 34.8359 26.2559C35.0247 25.9889 35.1257 25.735 35.1387 25.4941L35.8809 26.6074C35.7897 26.8743 35.653 27.1576 35.4707 27.457C35.2884 27.7565 35.054 28.0365 34.7676 28.2969C34.4811 28.5573 34.1361 28.7721 33.7324 28.9414C33.3288 29.1107 32.86 29.1953 32.3262 29.1953C31.6426 29.1953 31.0306 29.0586 30.4902 28.7852C29.9499 28.5117 29.5234 28.1374 29.2109 27.6621C28.8984 27.1868 28.7422 26.6465 28.7422 26.041C28.7422 25.4811 28.8464 24.9863 29.0547 24.5566C29.263 24.127 29.5723 23.7656 29.9824 23.4727C30.3926 23.1732 30.9004 22.9486 31.5059 22.7988C32.1178 22.6426 32.8177 22.5645 33.6055 22.5645H35.3438ZM39.8945 14H42.4824V26.666L42.2285 29H39.8945V14ZM49.2793 23.6094V23.8145C49.2793 24.6022 49.1914 25.3249 49.0156 25.9824C48.8464 26.64 48.5892 27.2096 48.2441 27.6914C47.8991 28.1667 47.4694 28.5378 46.9551 28.8047C46.4473 29.0651 45.8516 29.1953 45.168 29.1953C44.5169 29.1953 43.9505 29.0684 43.4688 28.8145C42.9935 28.5605 42.5931 28.2025 42.2676 27.7402C41.9421 27.2715 41.6816 26.7214 41.4863 26.0898C41.291 25.4518 41.1445 24.7552 41.0469 24V23.4434C41.1445 22.6816 41.291 21.985 41.4863 21.3535C41.6816 20.722 41.9421 20.1719 42.2676 19.7031C42.5931 19.2344 42.9935 18.873 43.4688 18.6191C43.944 18.3652 44.5039 18.2383 45.1484 18.2383C45.8385 18.2383 46.4408 18.3717 46.9551 18.6387C47.4759 18.8991 47.9056 19.2702 48.2441 19.752C48.5892 20.2272 48.8464 20.7936 49.0156 21.4512C49.1914 22.1022 49.2793 22.8216 49.2793 23.6094ZM46.6914 23.8145V23.6094C46.6914 23.1602 46.6556 22.737 46.584 22.3398C46.5124 21.9362 46.3952 21.5814 46.2324 21.2754C46.0697 20.9694 45.8483 20.7285 45.5684 20.5527C45.2884 20.377 44.9368 20.2891 44.5137 20.2891C44.11 20.2891 43.765 20.3574 43.4785 20.4941C43.1986 20.6309 42.9642 20.8197 42.7754 21.0605C42.5931 21.3014 42.4499 21.5846 42.3457 21.9102C42.248 22.2357 42.1829 22.5872 42.1504 22.9648V24.4883C42.196 24.9896 42.3034 25.4421 42.4727 25.8457C42.6419 26.2428 42.8926 26.5586 43.2246 26.793C43.5632 27.0273 43.9993 27.1445 44.5332 27.1445C44.9499 27.1445 45.2982 27.0632 45.5781 26.9004C45.8581 26.7311 46.0794 26.4967 46.2422 26.1973C46.4049 25.8913 46.5189 25.5365 46.584 25.1328C46.6556 24.7292 46.6914 24.2897 46.6914 23.8145ZM50.6953 23.8242V23.6191C50.6953 22.8444 50.806 22.1315 51.0273 21.4805C51.2487 20.8229 51.571 20.2533 51.9941 19.7715C52.4173 19.2897 52.9349 18.9154 53.5469 18.6484C54.1589 18.375 54.8555 18.2383 55.6367 18.2383C56.431 18.2383 57.1341 18.375 57.7461 18.6484C58.3646 18.9154 58.8854 19.2897 59.3086 19.7715C59.7318 20.2533 60.054 20.8229 60.2754 21.4805C60.4967 22.1315 60.6074 22.8444 60.6074 23.6191V23.8242C60.6074 24.5924 60.4967 25.3053 60.2754 25.9629C60.054 26.6139 59.7318 27.1836 59.3086 27.6719C58.8854 28.1536 58.3678 28.528 57.7559 28.7949C57.1439 29.0618 56.444 29.1953 55.6562 29.1953C54.875 29.1953 54.1751 29.0618 53.5566 28.7949C52.9382 28.528 52.4173 28.1536 51.9941 27.6719C51.571 27.1836 51.2487 26.6139 51.0273 25.9629C50.806 25.3053 50.6953 24.5924 50.6953 23.8242ZM53.2734 23.6191V23.8242C53.2734 24.2865 53.319 24.7194 53.4102 25.123C53.5013 25.5267 53.6413 25.8815 53.8301 26.1875C54.0189 26.4935 54.263 26.7344 54.5625 26.9102C54.8685 27.0794 55.2331 27.1641 55.6562 27.1641C56.0729 27.1641 56.431 27.0794 56.7305 26.9102C57.0299 26.7344 57.2741 26.4935 57.4629 26.1875C57.6582 25.8815 57.8014 25.5267 57.8926 25.123C57.9837 24.7194 58.0293 24.2865 58.0293 23.8242V23.6191C58.0293 23.1634 57.9837 22.737 57.8926 22.3398C57.8014 21.9362 57.6582 21.5814 57.4629 21.2754C57.2741 20.9629 57.0267 20.7188 56.7207 20.543C56.4212 20.3607 56.0599 20.2695 55.6367 20.2695C55.2201 20.2695 54.862 20.3607 54.5625 20.543C54.263 20.7188 54.0189 20.9629 53.8301 21.2754C53.6413 21.5814 53.5013 21.9362 53.4102 22.3398C53.319 22.737 53.2734 23.1634 53.2734 23.6191ZM68.7715 26.4902V18.4336H71.3691V29H68.9277L68.7715 26.4902ZM69.1035 24.3027L69.9043 24.2832C69.9043 24.9928 69.8262 25.6471 69.6699 26.2461C69.5137 26.8451 69.2695 27.3659 68.9375 27.8086C68.612 28.2448 68.1986 28.5866 67.6973 28.834C67.196 29.0749 66.6035 29.1953 65.9199 29.1953C65.3991 29.1953 64.9238 29.1237 64.4941 28.9805C64.0645 28.8307 63.6934 28.5996 63.3809 28.2871C63.0749 27.9681 62.8372 27.5612 62.668 27.0664C62.4987 26.5651 62.4141 25.9629 62.4141 25.2598V18.4336H64.9922V25.2793C64.9922 25.6309 65.0312 25.9238 65.1094 26.1582C65.194 26.3926 65.3079 26.5846 65.4512 26.7344C65.6009 26.8776 65.7734 26.9818 65.9688 27.0469C66.1706 27.1055 66.3854 27.1348 66.6133 27.1348C67.2383 27.1348 67.7298 27.0111 68.0879 26.7637C68.4525 26.5098 68.7129 26.1712 68.8691 25.748C69.0254 25.3184 69.1035 24.8366 69.1035 24.3027ZM78.6543 18.4336V20.2891H72.5996V18.4336H78.6543ZM74.2207 15.8359H76.8086V25.9531C76.8086 26.2656 76.8509 26.5065 76.9355 26.6758C77.0202 26.8451 77.1471 26.959 77.3164 27.0176C77.4857 27.0762 77.6875 27.1055 77.9219 27.1055C78.0911 27.1055 78.2474 27.0957 78.3906 27.0762C78.5339 27.0566 78.6543 27.0371 78.752 27.0176L78.7617 28.9512C78.5469 29.0228 78.3027 29.0814 78.0293 29.127C77.7624 29.1725 77.4596 29.1953 77.1211 29.1953C76.5417 29.1953 76.0339 29.0977 75.5977 28.9023C75.1615 28.7005 74.8229 28.3783 74.582 27.9355C74.3411 27.4863 74.2207 26.8939 74.2207 26.1582V15.8359Z" fill="white"/>
</g>
<defs>
<filter id="filter0_d_780_1403" x="0" y="0" width="108" height="56" filterUnits="userSpaceOnUse" color-interpolation-filters="sRGB">
<feFlood flood-opacity="0" result="BackgroundImageFix"/>
<feColorMatrix in="SourceAlpha" type="matrix" values="0 0 0 0 0 0 0 0 0 0 0 0 0 0 0 0 0 0 127 0" result="hardAlpha"/>
<feOffset dy="4"/>
<feGaussianBlur stdDeviation="2"/>
<feComposite in2="hardAlpha" operator="out"/>
<feColorMatrix type="matrix" values="0 0 0 0 0 0 0 0 0 0 0 0 0 0 0 0 0 0 0.25 0"/>
<feBlend mode="normal" in2="BackgroundImageFix" result="effect1_dropShadow_780_1403"/>
<feBlend mode="normal" in="SourceGraphic" in2="effect1_dropShadow_780_1403" result="shape"/>
</filter>
</defs>
</svg>
