<svg width="116" height="56" viewBox="0 0 116 56" fill="none" xmlns="http://www.w3.org/2000/svg">
<g filter="url(#filter0_d_780_1405)">
<rect x="4" width="108" height="48" rx="24" fill="#7B458F" shape-rendering="crispEdges"/>
<rect x="4.5" y="0.5" width="107" height="47" rx="23.5" stroke="#7B458F" shape-rendering="crispEdges"/>
<path d="M33.9082 29.1953C33.1074 29.1953 32.388 29.0651 31.75 28.8047C31.112 28.5443 30.5684 28.1829 30.1191 27.7207C29.6764 27.252 29.3346 26.7083 29.0938 26.0898C28.8594 25.4648 28.7422 24.7943 28.7422 24.0781V23.6875C28.7422 22.8737 28.8594 22.1348 29.0938 21.4707C29.3281 20.8001 29.6602 20.224 30.0898 19.7422C30.5195 19.2604 31.0339 18.8893 31.6328 18.6289C32.2318 18.3685 32.8926 18.2383 33.6152 18.2383C34.3639 18.2383 35.0247 18.3652 35.5977 18.6191C36.1706 18.8665 36.6491 19.2181 37.0332 19.6738C37.4173 20.1296 37.707 20.6764 37.9023 21.3145C38.0977 21.946 38.1953 22.6458 38.1953 23.4141V24.498H29.9141V22.7207H35.6562V22.5254C35.6432 22.1152 35.5651 21.7409 35.4219 21.4023C35.2786 21.0573 35.0573 20.7839 34.7578 20.582C34.4583 20.3737 34.071 20.2695 33.5957 20.2695C33.2116 20.2695 32.8763 20.3542 32.5898 20.5234C32.3099 20.6862 32.0755 20.9206 31.8867 21.2266C31.7044 21.526 31.5677 21.8841 31.4766 22.3008C31.3854 22.7174 31.3398 23.1797 31.3398 23.6875V24.0781C31.3398 24.5208 31.3984 24.931 31.5156 25.3086C31.6393 25.6862 31.8184 26.015 32.0527 26.2949C32.2936 26.5684 32.5801 26.7832 32.9121 26.9395C33.2507 27.0892 33.6348 27.1641 34.0645 27.1641C34.6048 27.1641 35.0931 27.0599 35.5293 26.8516C35.972 26.6367 36.3561 26.321 36.6816 25.9043L37.9805 27.252C37.7591 27.5775 37.4596 27.89 37.082 28.1895C36.7109 28.4889 36.2617 28.7331 35.7344 28.9219C35.207 29.1042 34.5983 29.1953 33.9082 29.1953ZM43.293 27.0469L45.7539 18.4336H48.4492L44.8262 29H43.1855L43.293 27.0469ZM41.4961 18.4336L43.9863 27.0664L44.0742 29H42.4238L38.791 18.4336H41.4961ZM54.416 29.1953C53.6152 29.1953 52.8958 29.0651 52.2578 28.8047C51.6198 28.5443 51.0762 28.1829 50.627 27.7207C50.1842 27.252 49.8424 26.7083 49.6016 26.0898C49.3672 25.4648 49.25 24.7943 49.25 24.0781V23.6875C49.25 22.8737 49.3672 22.1348 49.6016 21.4707C49.8359 20.8001 50.168 20.224 50.5977 19.7422C51.0273 19.2604 51.5417 18.8893 52.1406 18.6289C52.7396 18.3685 53.4004 18.2383 54.123 18.2383C54.8717 18.2383 55.5326 18.3652 56.1055 18.6191C56.6784 18.8665 57.1569 19.2181 57.541 19.6738C57.9251 20.1296 58.2148 20.6764 58.4102 21.3145C58.6055 21.946 58.7031 22.6458 58.7031 23.4141V24.498H50.4219V22.7207H56.1641V22.5254C56.151 22.1152 56.0729 21.7409 55.9297 21.4023C55.7865 21.0573 55.5651 20.7839 55.2656 20.582C54.9661 20.3737 54.5788 20.2695 54.1035 20.2695C53.7194 20.2695 53.3841 20.3542 53.0977 20.5234C52.8177 20.6862 52.5833 20.9206 52.3945 21.2266C52.2122 21.526 52.0755 21.8841 51.9844 22.3008C51.8932 22.7174 51.8477 23.1797 51.8477 23.6875V24.0781C51.8477 24.5208 51.9062 24.931 52.0234 25.3086C52.1471 25.6862 52.3262 26.015 52.5605 26.2949C52.8014 26.5684 53.0879 26.7832 53.4199 26.9395C53.7585 27.0892 54.1426 27.1641 54.5723 27.1641C55.1126 27.1641 55.6009 27.0599 56.0371 26.8516C56.4798 26.6367 56.8639 26.321 57.1895 25.9043L58.4883 27.252C58.2669 27.5775 57.9674 27.89 57.5898 28.1895C57.2188 28.4889 56.7695 28.7331 56.2422 28.9219C55.7148 29.1042 55.1061 29.1953 54.416 29.1953ZM62.9609 20.6895V29H60.3828V18.4336H62.8047L62.9609 20.6895ZM62.5508 23.3359H61.7891C61.7956 22.5677 61.8997 21.8711 62.1016 21.2461C62.3034 20.6211 62.5866 20.084 62.9512 19.6348C63.3223 19.1855 63.7617 18.8405 64.2695 18.5996C64.7773 18.3587 65.3438 18.2383 65.9688 18.2383C66.4766 18.2383 66.9355 18.3099 67.3457 18.4531C67.7559 18.5964 68.1074 18.8242 68.4004 19.1367C68.6999 19.4492 68.9277 19.8594 69.084 20.3672C69.2467 20.8685 69.3281 21.487 69.3281 22.2227V29H66.7305V22.2031C66.7305 21.7214 66.6589 21.3405 66.5156 21.0605C66.3789 20.7806 66.1771 20.582 65.9102 20.4648C65.6497 20.3477 65.3275 20.2891 64.9434 20.2891C64.5462 20.2891 64.1979 20.3704 63.8984 20.5332C63.6055 20.6895 63.3581 20.9076 63.1562 21.1875C62.9609 21.4674 62.8112 21.7897 62.707 22.1543C62.6029 22.5189 62.5508 22.9128 62.5508 23.3359ZM76.6035 18.4336V20.2891H70.5488V18.4336H76.6035ZM72.1699 15.8359H74.7578V25.9531C74.7578 26.2656 74.8001 26.5065 74.8848 26.6758C74.9694 26.8451 75.0964 26.959 75.2656 27.0176C75.4349 27.0762 75.6367 27.1055 75.8711 27.1055C76.0404 27.1055 76.1966 27.0957 76.3398 27.0762C76.4831 27.0566 76.6035 27.0371 76.7012 27.0176L76.7109 28.9512C76.4961 29.0228 76.252 29.0814 75.9785 29.127C75.7116 29.1725 75.4089 29.1953 75.0703 29.1953C74.4909 29.1953 73.9831 29.0977 73.5469 28.9023C73.1107 28.7005 72.7721 28.3783 72.5312 27.9355C72.2904 27.4863 72.1699 26.8939 72.1699 26.1582V15.8359ZM84.1328 26.1094C84.1328 25.888 84.0742 25.6895 83.957 25.5137C83.8398 25.3379 83.6185 25.1784 83.293 25.0352C82.974 24.8854 82.5052 24.7454 81.8867 24.6152C81.3398 24.498 80.8353 24.3516 80.373 24.1758C79.9108 24 79.5137 23.7884 79.1816 23.541C78.8496 23.2871 78.5892 22.9909 78.4004 22.6523C78.2181 22.3073 78.127 21.9102 78.127 21.4609C78.127 21.0247 78.2214 20.6146 78.4102 20.2305C78.599 19.8398 78.8724 19.498 79.2305 19.2051C79.5885 18.9056 80.0247 18.6712 80.5391 18.502C81.0534 18.3262 81.6328 18.2383 82.2773 18.2383C83.1758 18.2383 83.9473 18.3848 84.5918 18.6777C85.2428 18.9707 85.7409 19.3743 86.0859 19.8887C86.431 20.3965 86.6035 20.9694 86.6035 21.6074H84.0254C84.0254 21.3275 83.9603 21.0736 83.8301 20.8457C83.7064 20.6178 83.5143 20.4355 83.2539 20.2988C82.9935 20.1556 82.6647 20.084 82.2676 20.084C81.9095 20.084 81.6068 20.1426 81.3594 20.2598C81.1185 20.377 80.9362 20.5299 80.8125 20.7188C80.6888 20.9076 80.627 21.1159 80.627 21.3438C80.627 21.513 80.6595 21.666 80.7246 21.8027C80.7962 21.9329 80.9102 22.0534 81.0664 22.1641C81.2227 22.2747 81.4342 22.3757 81.7012 22.4668C81.9746 22.5579 82.3099 22.6458 82.707 22.7305C83.4948 22.8867 84.1816 23.0951 84.7676 23.3555C85.36 23.6094 85.8223 23.9479 86.1543 24.3711C86.4863 24.7943 86.6523 25.3346 86.6523 25.9922C86.6523 26.4609 86.5514 26.8906 86.3496 27.2812C86.1478 27.6654 85.8548 28.0007 85.4707 28.2871C85.0866 28.5736 84.6276 28.7982 84.0938 28.9609C83.5599 29.1172 82.9577 29.1953 82.2871 29.1953C81.3171 29.1953 80.4967 29.0228 79.8262 28.6777C79.1556 28.3262 78.6478 27.8835 78.3027 27.3496C77.9577 26.8092 77.7852 26.2493 77.7852 25.6699H80.2559C80.2754 26.0801 80.3861 26.4089 80.5879 26.6562C80.7897 26.9036 81.0436 27.0827 81.3496 27.1934C81.6621 27.2975 81.9909 27.3496 82.3359 27.3496C82.7266 27.3496 83.0553 27.2975 83.3223 27.1934C83.5892 27.0827 83.791 26.9362 83.9277 26.7539C84.0645 26.5651 84.1328 26.3503 84.1328 26.1094Z" fill="white"/>
</g>
<defs>
<filter id="filter0_d_780_1405" x="0" y="0" width="116" height="56" filterUnits="userSpaceOnUse" color-interpolation-filters="sRGB">
<feFlood flood-opacity="0" result="BackgroundImageFix"/>
<feColorMatrix in="SourceAlpha" type="matrix" values="0 0 0 0 0 0 0 0 0 0 0 0 0 0 0 0 0 0 127 0" result="hardAlpha"/>
<feOffset dy="4"/>
<feGaussianBlur stdDeviation="2"/>
<feComposite in2="hardAlpha" operator="out"/>
<feColorMatrix type="matrix" values="0 0 0 0 0 0 0 0 0 0 0 0 0 0 0 0 0 0 0.25 0"/>
<feBlend mode="normal" in2="BackgroundImageFix" result="effect1_dropShadow_780_1405"/>
<feBlend mode="normal" in="SourceGraphic" in2="effect1_dropShadow_780_1405" result="shape"/>
</filter>
</defs>
</svg>
