<svg width="108" height="56" viewBox="0 0 108 56" fill="none" xmlns="http://www.w3.org/2000/svg">
<g filter="url(#filter0_d_780_1409)">
<rect x="4" width="100" height="48" rx="24" fill="#7B458F" shape-rendering="crispEdges"/>
<rect x="4.5" y="0.5" width="99" height="47" rx="23.5" stroke="#7B458F" shape-rendering="crispEdges"/>
<path d="M31.8965 14V29H29.3086V14H31.8965ZM33.8984 23.8242V23.6191C33.8984 22.8444 34.0091 22.1315 34.2305 21.4805C34.4518 20.8229 34.7741 20.2533 35.1973 19.7715C35.6204 19.2897 36.138 18.9154 36.75 18.6484C37.362 18.375 38.0586 18.2383 38.8398 18.2383C39.6341 18.2383 40.3372 18.375 40.9492 18.6484C41.5677 18.9154 42.0885 19.2897 42.5117 19.7715C42.9349 20.2533 43.2572 20.8229 43.4785 21.4805C43.6999 22.1315 43.8105 22.8444 43.8105 23.6191V23.8242C43.8105 24.5924 43.6999 25.3053 43.4785 25.9629C43.2572 26.6139 42.9349 27.1836 42.5117 27.6719C42.0885 28.1536 41.571 28.528 40.959 28.7949C40.347 29.0618 39.6471 29.1953 38.8594 29.1953C38.0781 29.1953 37.3783 29.0618 36.7598 28.7949C36.1413 28.528 35.6204 28.1536 35.1973 27.6719C34.7741 27.1836 34.4518 26.6139 34.2305 25.9629C34.0091 25.3053 33.8984 24.5924 33.8984 23.8242ZM36.4766 23.6191V23.8242C36.4766 24.2865 36.5221 24.7194 36.6133 25.123C36.7044 25.5267 36.8444 25.8815 37.0332 26.1875C37.222 26.4935 37.4661 26.7344 37.7656 26.9102C38.0716 27.0794 38.4362 27.1641 38.8594 27.1641C39.276 27.1641 39.6341 27.0794 39.9336 26.9102C40.2331 26.7344 40.4772 26.4935 40.666 26.1875C40.8613 25.8815 41.0046 25.5267 41.0957 25.123C41.1868 24.7194 41.2324 24.2865 41.2324 23.8242V23.6191C41.2324 23.1634 41.1868 22.737 41.0957 22.3398C41.0046 21.9362 40.8613 21.5814 40.666 21.2754C40.4772 20.9629 40.2298 20.7188 39.9238 20.543C39.6243 20.3607 39.263 20.2695 38.8398 20.2695C38.4232 20.2695 38.0651 20.3607 37.7656 20.543C37.4661 20.7188 37.222 20.9629 37.0332 21.2754C36.8444 21.5814 36.7044 21.9362 36.6133 22.3398C36.5221 22.737 36.4766 23.1634 36.4766 23.6191ZM52.4043 18.4336H54.748V28.6777C54.748 29.6348 54.5397 30.4453 54.123 31.1094C53.7129 31.7799 53.1367 32.2878 52.3945 32.6328C51.6523 32.9844 50.7897 33.1602 49.8066 33.1602C49.3835 33.1602 48.9245 33.1016 48.4297 32.9844C47.9414 32.8672 47.4694 32.6816 47.0137 32.4277C46.5645 32.1803 46.1901 31.8581 45.8906 31.4609L47.0527 29.9375C47.4043 30.3477 47.8014 30.6569 48.2441 30.8652C48.6868 31.0801 49.1654 31.1875 49.6797 31.1875C50.2005 31.1875 50.6432 31.0898 51.0078 30.8945C51.3789 30.7057 51.6621 30.4258 51.8574 30.0547C52.0592 29.6901 52.1602 29.2409 52.1602 28.707V20.8457L52.4043 18.4336ZM45.2656 23.8438V23.6387C45.2656 22.8314 45.3633 22.099 45.5586 21.4414C45.7539 20.7773 46.0339 20.2077 46.3984 19.7324C46.7695 19.2572 47.2155 18.8893 47.7363 18.6289C48.2637 18.3685 48.8561 18.2383 49.5137 18.2383C50.2103 18.2383 50.7962 18.3652 51.2715 18.6191C51.7533 18.873 52.1504 19.2344 52.4629 19.7031C52.7819 20.1719 53.0293 20.7285 53.2051 21.373C53.3874 22.0111 53.5273 22.7142 53.625 23.4824V24.0391C53.5339 24.7878 53.3874 25.4746 53.1855 26.0996C52.9902 26.7246 52.7298 27.2715 52.4043 27.7402C52.0788 28.2025 51.6751 28.5605 51.1934 28.8145C50.7116 29.0684 50.1452 29.1953 49.4941 29.1953C48.8431 29.1953 48.2572 29.0618 47.7363 28.7949C47.2155 28.528 46.7695 28.1536 46.3984 27.6719C46.0339 27.1901 45.7539 26.6237 45.5586 25.9727C45.3633 25.3216 45.2656 24.612 45.2656 23.8438ZM47.8438 23.6387V23.8438C47.8438 24.2995 47.8893 24.7259 47.9805 25.123C48.0716 25.5202 48.2116 25.8717 48.4004 26.1777C48.5892 26.4772 48.8268 26.7116 49.1133 26.8809C49.3997 27.0501 49.7415 27.1348 50.1387 27.1348C50.6725 27.1348 51.1087 27.0241 51.4473 26.8027C51.7923 26.5749 52.0527 26.2656 52.2285 25.875C52.4108 25.4779 52.528 25.0319 52.5801 24.5371V23.0039C52.5475 22.6133 52.4759 22.252 52.3652 21.9199C52.2611 21.5879 52.1146 21.3014 51.9258 21.0605C51.737 20.8197 51.4961 20.6309 51.2031 20.4941C50.9102 20.3574 50.5618 20.2891 50.1582 20.2891C49.7676 20.2891 49.4258 20.377 49.1328 20.5527C48.8398 20.722 48.599 20.9596 48.4102 21.2656C48.2214 21.5716 48.0781 21.9264 47.9805 22.3301C47.8893 22.7337 47.8438 23.1699 47.8438 23.6387ZM62.209 21.8906V23.9316H56.8672V21.8906H62.209ZM67.1504 18.4336V29H64.5625V18.4336H67.1504ZM64.3867 15.6699C64.3867 15.2858 64.5169 14.9668 64.7773 14.7129C65.0443 14.459 65.4023 14.332 65.8516 14.332C66.3008 14.332 66.6556 14.459 66.916 14.7129C67.1829 14.9668 67.3164 15.2858 67.3164 15.6699C67.3164 16.0475 67.1829 16.3633 66.916 16.6172C66.6556 16.8711 66.3008 16.998 65.8516 16.998C65.4023 16.998 65.0443 16.8711 64.7773 16.6172C64.5169 16.3633 64.3867 16.0475 64.3867 15.6699ZM72.1406 20.6895V29H69.5625V18.4336H71.9844L72.1406 20.6895ZM71.7305 23.3359H70.9688C70.9753 22.5677 71.0794 21.8711 71.2812 21.2461C71.4831 20.6211 71.7663 20.084 72.1309 19.6348C72.502 19.1855 72.9414 18.8405 73.4492 18.5996C73.957 18.3587 74.5234 18.2383 75.1484 18.2383C75.6562 18.2383 76.1152 18.3099 76.5254 18.4531C76.9355 18.5964 77.2871 18.8242 77.5801 19.1367C77.8796 19.4492 78.1074 19.8594 78.2637 20.3672C78.4264 20.8685 78.5078 21.487 78.5078 22.2227V29H75.9102V22.2031C75.9102 21.7214 75.8385 21.3405 75.6953 21.0605C75.5586 20.7806 75.3568 20.582 75.0898 20.4648C74.8294 20.3477 74.5072 20.2891 74.123 20.2891C73.7259 20.2891 73.3776 20.3704 73.0781 20.5332C72.7852 20.6895 72.5378 20.9076 72.3359 21.1875C72.1406 21.4674 71.9909 21.7897 71.8867 22.1543C71.7826 22.5189 71.7305 22.9128 71.7305 23.3359Z" fill="white"/>
</g>
<defs>
<filter id="filter0_d_780_1409" x="0" y="0" width="108" height="56" filterUnits="userSpaceOnUse" color-interpolation-filters="sRGB">
<feFlood flood-opacity="0" result="BackgroundImageFix"/>
<feColorMatrix in="SourceAlpha" type="matrix" values="0 0 0 0 0 0 0 0 0 0 0 0 0 0 0 0 0 0 127 0" result="hardAlpha"/>
<feOffset dy="4"/>
<feGaussianBlur stdDeviation="2"/>
<feComposite in2="hardAlpha" operator="out"/>
<feColorMatrix type="matrix" values="0 0 0 0 0 0 0 0 0 0 0 0 0 0 0 0 0 0 0.25 0"/>
<feBlend mode="normal" in2="BackgroundImageFix" result="effect1_dropShadow_780_1409"/>
<feBlend mode="normal" in="SourceGraphic" in2="effect1_dropShadow_780_1409" result="shape"/>
</filter>
</defs>
</svg>
