<svg width="126" height="56" viewBox="0 0 126 56" fill="none" xmlns="http://www.w3.org/2000/svg">
<g filter="url(#filter0_d_780_1407)">
<rect x="4" width="118" height="48" rx="24" fill="#7B458F" shape-rendering="crispEdges"/>
<rect x="4.5" y="0.5" width="117" height="47" rx="23.5" stroke="#7B458F" shape-rendering="crispEdges"/>
<path d="M31.7402 20.5918V29H29.1621V18.4336H31.6035L31.7402 20.5918ZM34.9531 18.3652L34.9141 20.7676C34.7708 20.7415 34.6081 20.722 34.4258 20.709C34.25 20.696 34.084 20.6895 33.9277 20.6895C33.5306 20.6895 33.1823 20.7448 32.8828 20.8555C32.5833 20.9596 32.3327 21.1126 32.1309 21.3145C31.9355 21.5163 31.7858 21.7637 31.6816 22.0566C31.5775 22.3431 31.5189 22.6686 31.5059 23.0332L30.9492 22.9648C30.9492 22.2943 31.0176 21.6725 31.1543 21.0996C31.291 20.5267 31.4896 20.0254 31.75 19.5957C32.0104 19.166 32.3359 18.834 32.7266 18.5996C33.1237 18.3587 33.5794 18.2383 34.0938 18.2383C34.237 18.2383 34.39 18.2513 34.5527 18.2773C34.722 18.2969 34.8555 18.3262 34.9531 18.3652ZM40.9199 29.1953C40.1191 29.1953 39.3997 29.0651 38.7617 28.8047C38.1237 28.5443 37.5801 28.1829 37.1309 27.7207C36.6882 27.252 36.3464 26.7083 36.1055 26.0898C35.8711 25.4648 35.7539 24.7943 35.7539 24.0781V23.6875C35.7539 22.8737 35.8711 22.1348 36.1055 21.4707C36.3398 20.8001 36.6719 20.224 37.1016 19.7422C37.5312 19.2604 38.0456 18.8893 38.6445 18.6289C39.2435 18.3685 39.9043 18.2383 40.627 18.2383C41.3757 18.2383 42.0365 18.3652 42.6094 18.6191C43.1823 18.8665 43.6608 19.2181 44.0449 19.6738C44.429 20.1296 44.7188 20.6764 44.9141 21.3145C45.1094 21.946 45.207 22.6458 45.207 23.4141V24.498H36.9258V22.7207H42.668V22.5254C42.6549 22.1152 42.5768 21.7409 42.4336 21.4023C42.2904 21.0573 42.069 20.7839 41.7695 20.582C41.4701 20.3737 41.0827 20.2695 40.6074 20.2695C40.2233 20.2695 39.888 20.3542 39.6016 20.5234C39.3216 20.6862 39.0872 20.9206 38.8984 21.2266C38.7161 21.526 38.5794 21.8841 38.4883 22.3008C38.3971 22.7174 38.3516 23.1797 38.3516 23.6875V24.0781C38.3516 24.5208 38.4102 24.931 38.5273 25.3086C38.651 25.6862 38.8301 26.015 39.0645 26.2949C39.3053 26.5684 39.5918 26.7832 39.9238 26.9395C40.2624 27.0892 40.6465 27.1641 41.0762 27.1641C41.6165 27.1641 42.1048 27.0599 42.541 26.8516C42.9837 26.6367 43.3678 26.321 43.6934 25.9043L44.9922 27.252C44.7708 27.5775 44.4714 27.89 44.0938 28.1895C43.7227 28.4889 43.2734 28.7331 42.7461 28.9219C42.2188 29.1042 41.61 29.1953 40.9199 29.1953ZM53.6543 18.4336H55.998V28.6777C55.998 29.6348 55.7897 30.4453 55.373 31.1094C54.9629 31.7799 54.3867 32.2878 53.6445 32.6328C52.9023 32.9844 52.0397 33.1602 51.0566 33.1602C50.6335 33.1602 50.1745 33.1016 49.6797 32.9844C49.1914 32.8672 48.7194 32.6816 48.2637 32.4277C47.8145 32.1803 47.4401 31.8581 47.1406 31.4609L48.3027 29.9375C48.6543 30.3477 49.0514 30.6569 49.4941 30.8652C49.9368 31.0801 50.4154 31.1875 50.9297 31.1875C51.4505 31.1875 51.8932 31.0898 52.2578 30.8945C52.6289 30.7057 52.9121 30.4258 53.1074 30.0547C53.3092 29.6901 53.4102 29.2409 53.4102 28.707V20.8457L53.6543 18.4336ZM46.5156 23.8438V23.6387C46.5156 22.8314 46.6133 22.099 46.8086 21.4414C47.0039 20.7773 47.2839 20.2077 47.6484 19.7324C48.0195 19.2572 48.4655 18.8893 48.9863 18.6289C49.5137 18.3685 50.1061 18.2383 50.7637 18.2383C51.4603 18.2383 52.0462 18.3652 52.5215 18.6191C53.0033 18.873 53.4004 19.2344 53.7129 19.7031C54.0319 20.1719 54.2793 20.7285 54.4551 21.373C54.6374 22.0111 54.7773 22.7142 54.875 23.4824V24.0391C54.7839 24.7878 54.6374 25.4746 54.4355 26.0996C54.2402 26.7246 53.9798 27.2715 53.6543 27.7402C53.3288 28.2025 52.9251 28.5605 52.4434 28.8145C51.9616 29.0684 51.3952 29.1953 50.7441 29.1953C50.0931 29.1953 49.5072 29.0618 48.9863 28.7949C48.4655 28.528 48.0195 28.1536 47.6484 27.6719C47.2839 27.1901 47.0039 26.6237 46.8086 25.9727C46.6133 25.3216 46.5156 24.612 46.5156 23.8438ZM49.0938 23.6387V23.8438C49.0938 24.2995 49.1393 24.7259 49.2305 25.123C49.3216 25.5202 49.4616 25.8717 49.6504 26.1777C49.8392 26.4772 50.0768 26.7116 50.3633 26.8809C50.6497 27.0501 50.9915 27.1348 51.3887 27.1348C51.9225 27.1348 52.3587 27.0241 52.6973 26.8027C53.0423 26.5749 53.3027 26.2656 53.4785 25.875C53.6608 25.4779 53.778 25.0319 53.8301 24.5371V23.0039C53.7975 22.6133 53.7259 22.252 53.6152 21.9199C53.5111 21.5879 53.3646 21.3014 53.1758 21.0605C52.987 20.8197 52.7461 20.6309 52.4531 20.4941C52.1602 20.3574 51.8118 20.2891 51.4082 20.2891C51.0176 20.2891 50.6758 20.377 50.3828 20.5527C50.0898 20.722 49.849 20.9596 49.6602 21.2656C49.4714 21.5716 49.3281 21.9264 49.2305 22.3301C49.1393 22.7337 49.0938 23.1699 49.0938 23.6387ZM61.0566 18.4336V29H58.4688V18.4336H61.0566ZM58.293 15.6699C58.293 15.2858 58.4232 14.9668 58.6836 14.7129C58.9505 14.459 59.3086 14.332 59.7578 14.332C60.207 14.332 60.5618 14.459 60.8223 14.7129C61.0892 14.9668 61.2227 15.2858 61.2227 15.6699C61.2227 16.0475 61.0892 16.3633 60.8223 16.6172C60.5618 16.8711 60.207 16.998 59.7578 16.998C59.3086 16.998 58.9505 16.8711 58.6836 16.6172C58.4232 16.3633 58.293 16.0475 58.293 15.6699ZM69.3281 26.1094C69.3281 25.888 69.2695 25.6895 69.1523 25.5137C69.0352 25.3379 68.8138 25.1784 68.4883 25.0352C68.1693 24.8854 67.7005 24.7454 67.082 24.6152C66.5352 24.498 66.0306 24.3516 65.5684 24.1758C65.1061 24 64.709 23.7884 64.377 23.541C64.0449 23.2871 63.7845 22.9909 63.5957 22.6523C63.4134 22.3073 63.3223 21.9102 63.3223 21.4609C63.3223 21.0247 63.4167 20.6146 63.6055 20.2305C63.7943 19.8398 64.0677 19.498 64.4258 19.2051C64.7839 18.9056 65.2201 18.6712 65.7344 18.502C66.2487 18.3262 66.8281 18.2383 67.4727 18.2383C68.3711 18.2383 69.1426 18.3848 69.7871 18.6777C70.4382 18.9707 70.9362 19.3743 71.2812 19.8887C71.6263 20.3965 71.7988 20.9694 71.7988 21.6074H69.2207C69.2207 21.3275 69.1556 21.0736 69.0254 20.8457C68.9017 20.6178 68.7096 20.4355 68.4492 20.2988C68.1888 20.1556 67.86 20.084 67.4629 20.084C67.1048 20.084 66.8021 20.1426 66.5547 20.2598C66.3138 20.377 66.1315 20.5299 66.0078 20.7188C65.8841 20.9076 65.8223 21.1159 65.8223 21.3438C65.8223 21.513 65.8548 21.666 65.9199 21.8027C65.9915 21.9329 66.1055 22.0534 66.2617 22.1641C66.418 22.2747 66.6296 22.3757 66.8965 22.4668C67.1699 22.5579 67.5052 22.6458 67.9023 22.7305C68.6901 22.8867 69.377 23.0951 69.9629 23.3555C70.5553 23.6094 71.0176 23.9479 71.3496 24.3711C71.6816 24.7943 71.8477 25.3346 71.8477 25.9922C71.8477 26.4609 71.7467 26.8906 71.5449 27.2812C71.3431 27.6654 71.0501 28.0007 70.666 28.2871C70.2819 28.5736 69.8229 28.7982 69.2891 28.9609C68.7552 29.1172 68.153 29.1953 67.4824 29.1953C66.5124 29.1953 65.6921 29.0228 65.0215 28.6777C64.3509 28.3262 63.8431 27.8835 63.498 27.3496C63.153 26.8092 62.9805 26.2493 62.9805 25.6699H65.4512C65.4707 26.0801 65.5814 26.4089 65.7832 26.6562C65.985 26.9036 66.2389 27.0827 66.5449 27.1934C66.8574 27.2975 67.1862 27.3496 67.5312 27.3496C67.9219 27.3496 68.2507 27.2975 68.5176 27.1934C68.7845 27.0827 68.9863 26.9362 69.123 26.7539C69.2598 26.5651 69.3281 26.3503 69.3281 26.1094ZM78.8105 18.4336V20.2891H72.7559V18.4336H78.8105ZM74.377 15.8359H76.9648V25.9531C76.9648 26.2656 77.0072 26.5065 77.0918 26.6758C77.1764 26.8451 77.3034 26.959 77.4727 27.0176C77.6419 27.0762 77.8438 27.1055 78.0781 27.1055C78.2474 27.1055 78.4036 27.0957 78.5469 27.0762C78.6901 27.0566 78.8105 27.0371 78.9082 27.0176L78.918 28.9512C78.7031 29.0228 78.459 29.0814 78.1855 29.127C77.9186 29.1725 77.6159 29.1953 77.2773 29.1953C76.6979 29.1953 76.1901 29.0977 75.7539 28.9023C75.3177 28.7005 74.9792 28.3783 74.7383 27.9355C74.4974 27.4863 74.377 26.8939 74.377 26.1582V15.8359ZM85.2754 29.1953C84.4746 29.1953 83.7552 29.0651 83.1172 28.8047C82.4792 28.5443 81.9355 28.1829 81.4863 27.7207C81.0436 27.252 80.7018 26.7083 80.4609 26.0898C80.2266 25.4648 80.1094 24.7943 80.1094 24.0781V23.6875C80.1094 22.8737 80.2266 22.1348 80.4609 21.4707C80.6953 20.8001 81.0273 20.224 81.457 19.7422C81.8867 19.2604 82.401 18.8893 83 18.6289C83.599 18.3685 84.2598 18.2383 84.9824 18.2383C85.7311 18.2383 86.3919 18.3652 86.9648 18.6191C87.5378 18.8665 88.0163 19.2181 88.4004 19.6738C88.7845 20.1296 89.0742 20.6764 89.2695 21.3145C89.4648 21.946 89.5625 22.6458 89.5625 23.4141V24.498H81.2812V22.7207H87.0234V22.5254C87.0104 22.1152 86.9323 21.7409 86.7891 21.4023C86.6458 21.0573 86.4245 20.7839 86.125 20.582C85.8255 20.3737 85.4382 20.2695 84.9629 20.2695C84.5788 20.2695 84.2435 20.3542 83.957 20.5234C83.6771 20.6862 83.4427 20.9206 83.2539 21.2266C83.0716 21.526 82.9349 21.8841 82.8438 22.3008C82.7526 22.7174 82.707 23.1797 82.707 23.6875V24.0781C82.707 24.5208 82.7656 24.931 82.8828 25.3086C83.0065 25.6862 83.1855 26.015 83.4199 26.2949C83.6608 26.5684 83.9473 26.7832 84.2793 26.9395C84.6178 27.0892 85.002 27.1641 85.4316 27.1641C85.972 27.1641 86.4603 27.0599 86.8965 26.8516C87.3392 26.6367 87.7233 26.321 88.0488 25.9043L89.3477 27.252C89.1263 27.5775 88.8268 27.89 88.4492 28.1895C88.0781 28.4889 87.6289 28.7331 87.1016 28.9219C86.5742 29.1042 85.9655 29.1953 85.2754 29.1953ZM93.8691 20.5918V29H91.291V18.4336H93.7324L93.8691 20.5918ZM97.082 18.3652L97.043 20.7676C96.8997 20.7415 96.737 20.722 96.5547 20.709C96.3789 20.696 96.2129 20.6895 96.0566 20.6895C95.6595 20.6895 95.3112 20.7448 95.0117 20.8555C94.7122 20.9596 94.4616 21.1126 94.2598 21.3145C94.0645 21.5163 93.9147 21.7637 93.8105 22.0566C93.7064 22.3431 93.6478 22.6686 93.6348 23.0332L93.0781 22.9648C93.0781 22.2943 93.1465 21.6725 93.2832 21.0996C93.4199 20.5267 93.6185 20.0254 93.8789 19.5957C94.1393 19.166 94.4648 18.834 94.8555 18.5996C95.2526 18.3587 95.7083 18.2383 96.2227 18.2383C96.3659 18.2383 96.5189 18.2513 96.6816 18.2773C96.8509 18.2969 96.9844 18.3262 97.082 18.3652Z" fill="white"/>
</g>
<defs>
<filter id="filter0_d_780_1407" x="0" y="0" width="126" height="56" filterUnits="userSpaceOnUse" color-interpolation-filters="sRGB">
<feFlood flood-opacity="0" result="BackgroundImageFix"/>
<feColorMatrix in="SourceAlpha" type="matrix" values="0 0 0 0 0 0 0 0 0 0 0 0 0 0 0 0 0 0 127 0" result="hardAlpha"/>
<feOffset dy="4"/>
<feGaussianBlur stdDeviation="2"/>
<feComposite in2="hardAlpha" operator="out"/>
<feColorMatrix type="matrix" values="0 0 0 0 0 0 0 0 0 0 0 0 0 0 0 0 0 0 0.25 0"/>
<feBlend mode="normal" in2="BackgroundImageFix" result="effect1_dropShadow_780_1407"/>
<feBlend mode="normal" in="SourceGraphic" in2="effect1_dropShadow_780_1407" result="shape"/>
</filter>
</defs>
</svg>
