<svg width="151" height="65" viewBox="0 0 151 65" fill="none" xmlns="http://www.w3.org/2000/svg">
<g filter="url(#filter0_d_89_295)">
<path d="M38.704 21.832C41.328 21.832 43.376 22.6 44.848 24.136C46.352 25.64 47.104 27.736 47.104 30.424C47.104 31.32 47.008 32.28 46.816 33.304L44.032 49H34.624L37.168 34.552C37.264 34.072 37.312 33.64 37.312 33.256C37.312 32.104 36.976 31.208 36.304 30.568C35.664 29.928 34.752 29.608 33.568 29.608C32.224 29.608 31.088 30.024 30.16 30.856C29.232 31.688 28.608 32.84 28.288 34.312L25.696 49H16.24L21.04 22.072H30.448L29.776 25.912C30.832 24.696 32.128 23.72 33.664 22.984C35.2 22.216 36.88 21.832 38.704 21.832ZM60.9062 49.336C58.6663 49.336 56.6663 49 54.9062 48.328C53.1463 47.656 51.7703 46.712 50.7783 45.496C49.7863 44.248 49.2903 42.824 49.2903 41.224C49.2903 40.936 49.3223 40.504 49.3863 39.928H58.4583C58.4263 40.824 58.6983 41.512 59.2743 41.992C59.8503 42.472 60.6503 42.712 61.6743 42.712C62.4743 42.712 63.1303 42.552 63.6423 42.232C64.1863 41.912 64.4583 41.496 64.4583 40.984C64.4583 40.376 64.1223 39.912 63.4503 39.592C62.7783 39.24 61.6583 38.808 60.0903 38.296C58.2663 37.72 56.7623 37.16 55.5783 36.616C54.3943 36.072 53.3543 35.272 52.4583 34.216C51.5943 33.16 51.1623 31.8 51.1623 30.136C51.1623 28.536 51.6263 27.096 52.5543 25.816C53.5143 24.536 54.8583 23.544 56.5863 22.84C58.3143 22.104 60.3143 21.736 62.5863 21.736C65.0183 21.736 67.1143 22.152 68.8743 22.984C70.6663 23.784 71.9943 24.904 72.8583 26.344C73.7543 27.784 74.1543 29.384 74.0583 31.144H65.6103C65.6423 30.28 65.3863 29.608 64.8423 29.128C64.2983 28.616 63.5143 28.36 62.4903 28.36C61.7543 28.36 61.1463 28.52 60.6663 28.84C60.1863 29.16 59.9463 29.576 59.9463 30.088C59.9463 30.696 60.2823 31.176 60.9543 31.528C61.6583 31.88 62.8263 32.328 64.4583 32.872C66.2503 33.448 67.7383 34.024 68.9223 34.6C70.1383 35.144 71.1783 35.928 72.0423 36.952C72.9063 37.944 73.3383 39.224 73.3383 40.792C73.3383 43.448 72.1863 45.544 69.8823 47.08C67.5783 48.584 64.5863 49.336 60.9062 49.336ZM77.2915 35.512C77.8035 32.696 78.8115 30.264 80.3155 28.216C81.8515 26.136 83.7395 24.536 85.9795 23.416C88.2515 22.296 90.7155 21.736 93.3715 21.736C96.7955 21.736 99.5155 22.68 101.531 24.568C103.548 26.424 104.604 29.032 104.7 32.392H94.6675C94.4115 30.632 93.4355 29.752 91.7395 29.752C90.5555 29.752 89.5315 30.248 88.6675 31.24C87.8035 32.2 87.2115 33.624 86.8915 35.512C86.7635 36.152 86.6995 36.792 86.6995 37.432C86.6995 38.712 86.9715 39.688 87.5155 40.36C88.0595 41 88.7955 41.32 89.7235 41.32C91.4515 41.32 92.7155 40.44 93.5155 38.68H103.548C102.3 42.008 100.332 44.616 97.6435 46.504C94.9875 48.392 91.9315 49.336 88.4755 49.336C84.9555 49.336 82.1555 48.376 80.0755 46.456C78.0275 44.536 77.0035 41.896 77.0035 38.536C77.0035 37.576 77.0995 36.568 77.2915 35.512ZM106.448 35.512C106.96 32.696 107.968 30.264 109.472 28.216C111.008 26.136 112.896 24.536 115.136 23.416C117.408 22.296 119.872 21.736 122.528 21.736C125.952 21.736 128.672 22.68 130.688 24.568C132.704 26.424 133.76 29.032 133.856 32.392H123.824C123.568 30.632 122.592 29.752 120.896 29.752C119.712 29.752 118.688 30.248 117.824 31.24C116.96 32.2 116.368 33.624 116.048 35.512C115.92 36.152 115.856 36.792 115.856 37.432C115.856 38.712 116.128 39.688 116.672 40.36C117.216 41 117.952 41.32 118.88 41.32C120.608 41.32 121.872 40.44 122.672 38.68H132.704C131.456 42.008 129.488 44.616 126.8 46.504C124.144 48.392 121.088 49.336 117.632 49.336C114.112 49.336 111.312 48.376 109.232 46.456C107.184 44.536 106.16 41.896 106.16 38.536C106.16 37.576 106.256 36.568 106.448 35.512Z" fill="#004780"/>
</g>
<defs>
<filter id="filter0_d_89_295" x="12.2402" y="21.7361" width="125.615" height="35.5999" filterUnits="userSpaceOnUse" color-interpolation-filters="sRGB">
<feFlood flood-opacity="0" result="BackgroundImageFix"/>
<feColorMatrix in="SourceAlpha" type="matrix" values="0 0 0 0 0 0 0 0 0 0 0 0 0 0 0 0 0 0 127 0" result="hardAlpha"/>
<feOffset dy="4"/>
<feGaussianBlur stdDeviation="2"/>
<feComposite in2="hardAlpha" operator="out"/>
<feColorMatrix type="matrix" values="0 0 0 0 0 0 0 0 0 0 0 0 0 0 0 0 0 0 0.25 0"/>
<feBlend mode="normal" in2="BackgroundImageFix" result="effect1_dropShadow_89_295"/>
<feBlend mode="normal" in="SourceGraphic" in2="effect1_dropShadow_89_295" result="shape"/>
</filter>
</defs>
</svg>
